<?xml version="1.0" encoding="utf-8"?>
<!-- Generator: Adobe Illustrator 18.1.0, SVG Export Plug-In . SVG Version: 6.00 Build 0)  -->
<!DOCTYPE svg PUBLIC "-//W3C//DTD SVG 1.1//EN" "http://www.w3.org/Graphics/SVG/1.1/DTD/svg11.dtd">
<svg version="1.1" id="Layer_1" xmlns="http://www.w3.org/2000/svg" xmlns:xlink="http://www.w3.org/1999/xlink" x="0px" y="0px"
	 viewBox="-210 269.4 371 74.6" enable-background="new -210 269.4 371 74.6" xml:space="preserve">
<g>
	<g>
		<path fill="#231F20" d="M-159.7,286.7l-0.1-0.1l-0.1,0.1c-1,1-2.1,1.8-3.2,2.3c-1.1,0.6-2.5,0.8-4,0.8c-1.3,0-2.4-0.2-3.5-0.7
			c-1.1-0.5-2-1.2-2.8-2c-0.8-0.9-1.4-1.9-1.9-3c-0.5-1.1-0.7-2.4-0.7-3.7v-0.1c0-1.3,0.2-2.6,0.7-3.7c0.5-1.1,1.1-2.1,1.9-3
			c0.8-0.8,1.7-1.5,2.8-2c1.1-0.5,2.3-0.7,3.5-0.7c0.8,0,1.5,0.1,2.2,0.2c0.7,0.2,1.3,0.4,1.9,0.6c0.6,0.3,1.1,0.6,1.6,1
			c0.4,0.3,0.9,0.7,1.3,1.1l0.1,0l0.1-0.1l0.9-0.9l0.1-0.1l-0.1-0.1c-0.5-0.4-1-0.9-1.5-1.2c-0.6-0.4-1.2-0.8-1.8-1.1
			c-0.7-0.3-1.4-0.5-2.1-0.7c-0.8-0.2-1.6-0.2-2.6-0.2c-1.5,0-2.9,0.3-4.2,0.9c-1.3,0.6-2.4,1.4-3.3,2.4c-0.9,1-1.7,2.2-2.2,3.5
			c-0.5,1.3-0.8,2.7-0.8,4.2v0.1c0,1.5,0.3,2.9,0.8,4.2c0.5,1.3,1.3,2.5,2.2,3.5c0.9,1,2,1.7,3.3,2.3c1.3,0.6,2.7,0.8,4.2,0.8
			c0.9,0,1.8-0.1,2.6-0.3c0.8-0.2,1.5-0.4,2.2-0.8c0.7-0.3,1.3-0.7,1.9-1.2c0.5-0.4,1.1-0.9,1.6-1.4l0.1-0.1l-0.1-0.1L-159.7,286.7z
			"/>
		<path fill="#231F20" d="M-81.9,290.6l-6.7-8.7l0,0l0,0c0.9-0.1,1.7-0.3,2.4-0.6c0.7-0.3,1.4-0.7,2-1.2c0.6-0.5,1-1.1,1.3-1.8
			c0.3-0.7,0.5-1.5,0.5-2.4v-0.1c0-0.8-0.1-1.5-0.4-2.2c-0.3-0.7-0.7-1.3-1.2-1.8c-0.6-0.6-1.5-1.2-2.5-1.5c-1-0.4-2.2-0.6-3.5-0.6
			h-8.7c-0.1,0-0.2,0.1-0.2,0.2v20.7c0,0.1,0.1,0.2,0.2,0.2h1.2c0.1,0,0.2-0.1,0.2-0.2v-8.5h6.8h0l0.1,0l6.6,8.6l0.1,0.1h1.6
			C-81.9,290.9-81.8,290.8-81.9,290.6L-81.9,290.6z M-97.2,280.7l0-9.5h7.2c1.9,0,3.4,0.4,4.5,1.2c1,0.8,1.6,2,1.6,3.4v0.1
			c0,0.8-0.2,1.4-0.5,2c-0.3,0.6-0.7,1.1-1.3,1.5c-0.5,0.4-1.2,0.7-1.9,1c-0.7,0.2-1.6,0.3-2.5,0.3H-97.2z"/>
		<path fill="#231F20" d="M-48.5,281c0.1,0,0.2-0.1,0.2-0.2v-1c0-0.1-0.1-0.2-0.2-0.2h-11.9v-8.3H-50c0.1,0,0.2-0.1,0.2-0.2v-1
			c0-0.1-0.1-0.2-0.2-0.2h-11.7c-0.1,0-0.2,0.1-0.2,0.2v20.7c0,0.1,0.1,0.2,0.2,0.2H-47c0.1,0,0.2-0.1,0.2-0.2v-1
			c0-0.1-0.1-0.2-0.2-0.2h-13.4V281H-48.5z"/>
		<path fill="#231F20" d="M-2.6,270v20.7c0,0.1,0.1,0.2,0.2,0.2h9c1.1,0,2.2-0.1,3.1-0.4c0.9-0.3,1.7-0.7,2.4-1.1
			c0.7-0.5,1.2-1.1,1.5-1.8c0.4-0.7,0.5-1.5,0.5-2.4v-0.1c0-0.7-0.1-1.4-0.4-1.9c-0.3-0.5-0.6-1-1-1.4c-0.4-0.4-0.9-0.8-1.5-1
			c-0.6-0.3-1.2-0.5-1.8-0.6c0.4-0.2,0.9-0.4,1.3-0.7c0.4-0.3,0.8-0.6,1.2-1c0.3-0.4,0.6-0.9,0.8-1.4c0.2-0.5,0.3-1.2,0.3-1.9V275
			c0-1.3-0.5-2.4-1.4-3.3c-0.6-0.6-1.3-1-2.3-1.4c-0.9-0.3-2-0.5-3.2-0.5h-8.5C-2.5,269.8-2.6,269.9-2.6,270z M6,271.2
			c1.7,0,3,0.4,3.9,1.1c0.9,0.7,1.4,1.7,1.4,2.8v0.1c0,0.7-0.1,1.3-0.4,1.9c-0.3,0.5-0.6,1-1.1,1.4c-0.5,0.4-1.1,0.6-1.7,0.8
			c-0.7,0.2-1.4,0.3-2.2,0.3h-7l0-8.3H6z M6.1,281c2.1,0,3.7,0.4,4.8,1.1c1.1,0.7,1.6,1.7,1.6,3v0.1c0,1.3-0.5,2.4-1.6,3.2
			c-1.1,0.8-2.5,1.2-4.3,1.2h-7.6l0-8.5H6.1z"/>
		<path fill="#231F20" d="M53.4,290.6L53.4,290.6l-9.6-20.9c0-0.1-0.1-0.1-0.2-0.1h-1.3c-0.1,0-0.1,0-0.2,0.1l-9.6,20.8l0,0
			c-0.1,0.2,0.1,0.3,0.2,0.3l0,0l0,0h0h1.2c0.1,0,0.1,0,0.2-0.1l2.6-5.8h12.4l2.6,5.8c0,0.1,0.1,0.1,0.2,0.1h1.3l0,0l0,0
			C53.3,290.9,53.4,290.8,53.4,290.6z M48.4,283.5L48.4,283.5l-11,0l0,0l0,0l5.6-12.2L48.4,283.5L48.4,283.5z"/>
		<path fill="#231F20" d="M89.4,290.9h1c0.1,0,0.2-0.1,0.2-0.2V270c0-0.1-0.1-0.2-0.2-0.2h-1.1c-0.1,0-0.2,0.1-0.2,0.2v18.1l0,0
			l-14.5-18.2l-0.1-0.1h-1.3c-0.1,0-0.2,0.1-0.2,0.2v20.7c0,0.1,0.1,0.2,0.2,0.2h1.1c0.1,0,0.2-0.1,0.2-0.2v-18.5l0,0L89.4,290.9
			L89.4,290.9z"/>
		<path fill="#231F20" d="M129.1,290.6l-9.4-11.5l8.9-9c0.1-0.1,0.1-0.1,0-0.2c0-0.1-0.1-0.1-0.2-0.1h-1.7l-0.1,0.1l-13.3,13.8l0,0
			l0,0l0-13.7c0-0.1-0.1-0.2-0.2-0.2H112c-0.1,0-0.2,0.1-0.2,0.2v20.7c0,0.1,0.1,0.2,0.2,0.2h1.2c0.1,0,0.2-0.1,0.2-0.2v-5.1l0-0.1
			l5.2-5.2l0,0l0,0l8.6,10.6l0.1,0.1h1.6C129.1,290.9,129.2,290.8,129.1,290.6L129.1,290.6z"/>
		<path fill="#231F20" d="M-129.8,270.2c-5.6,0-10.1,4.6-10.1,10.1c0,5.6,4.6,10.2,10.1,10.2c5.6,0,10.2-4.6,10.2-10.2
			C-119.6,274.7-124.2,270.2-129.8,270.2z"/>
	</g>
	<g>
		<polyline fill="#231F20" points="-197.2,307.5 148.7,307.5 148.7,306.5 -197.2,306.5 		"/>
	</g>
	<g>
		<path fill="#231F20" d="M-118.6,327.3h-6.3v-4.2h17.3v4.2h-6.3v16.6h-4.6V327.3z"/>
		<path fill="#231F20" d="M-74.8,323.1h4.6v20.8h-4.6V323.1z"/>
		<path fill="#231F20" d="M-30.9,327.3h-6.3v-4.2H-20v4.2h-6.3v16.6h-4.6V327.3z"/>
		<path fill="#231F20" d="M12.9,323.1h4.6v16.7h10.4v4.1h-15V323.1z"/>
		<path fill="#231F20" d="M60.7,323.1h15.7v4.1H65.2v4.2H75v4.1h-9.8v4.4h11.3v4.1H60.7V323.1z"/>
	</g>
</g>
</svg>
