<?xml version="1.0" encoding="utf-8"?>
<!-- Generator: Adobe Illustrator 16.2.1, SVG Export Plug-In . SVG Version: 6.00 Build 0)  -->
<!DOCTYPE svg PUBLIC "-//W3C//DTD SVG 1.1//EN" "http://www.w3.org/Graphics/SVG/1.1/DTD/svg11.dtd">
<svg version="1.1" id="Layer_1" xmlns="http://www.w3.org/2000/svg" xmlns:xlink="http://www.w3.org/1999/xlink" x="0px" y="0px"
	 width="370.982px" height="74.516px" viewBox="0 0 370.982 74.516" enable-background="new 0 0 370.982 74.516"
	 xml:space="preserve">
<path fill="#1A1A1A" d="M41.009,19.297l0.062,0.145l-0.062,0.146c-0.546,0.52-1.121,1.01-1.707,1.455
	c-0.615,0.475-1.299,0.893-2.033,1.246c-0.712,0.34-1.478,0.604-2.344,0.807c-0.841,0.193-1.764,0.291-2.743,0.291
	c-1.603,0-3.113-0.303-4.49-0.904c-1.371-0.602-2.571-1.432-3.568-2.471s-1.785-2.283-2.342-3.701
	c-0.558-1.408-0.84-2.942-0.84-4.553v-0.064c0-1.59,0.288-3.11,0.856-4.524c0.565-1.412,1.357-2.666,2.355-3.728
	c0.998-1.061,2.198-1.907,3.569-2.521C29.093,0.309,30.615,0,32.244,0c1.015,0,1.938,0.086,2.744,0.256
	c0.812,0.17,1.577,0.42,2.279,0.742c0.692,0.319,1.354,0.705,1.97,1.146c0.557,0.404,1.107,0.853,1.639,1.328l0.066,0.144
	l-0.058,0.146L39.973,4.7L39.83,4.762l-0.137-0.055c-0.455-0.424-0.929-0.824-1.408-1.188c-0.533-0.403-1.115-0.758-1.729-1.053
	c-0.604-0.285-1.258-0.512-2-0.691c-0.724-0.172-1.513-0.26-2.344-0.26c-1.352,0-2.622,0.262-3.777,0.777
	c-1.162,0.518-2.178,1.238-3.019,2.145c-0.849,0.912-1.522,1.994-2.006,3.215c-0.48,1.226-0.727,2.562-0.727,3.976v0.063
	c0,1.414,0.25,2.759,0.743,3.99c0.493,1.229,1.172,2.316,2.018,3.23c0.853,0.914,1.868,1.641,3.021,2.162
	c1.161,0.524,2.433,0.791,3.78,0.791c1.628,0,3.062-0.306,4.263-0.906c1.147-0.57,2.287-1.402,3.386-2.478l0.142-0.057l0.14,0.057
	L41.009,19.297z M123.71,22.693c0.085,0.195-0.1,0.304-0.174,0.304h-1.722l-0.062-0.08l-7.114-9.25l-0.075-0.037h-0.017h-7.335
	v9.166c0,0.108-0.09,0.201-0.201,0.201h-1.274c-0.111,0-0.2-0.093-0.2-0.201V0.588c0-0.109,0.089-0.201,0.2-0.201h9.295
	c1.388,0,2.638,0.201,3.714,0.596c1.072,0.398,1.963,0.947,2.647,1.632c0.536,0.536,0.96,1.172,1.26,1.891
	c0.301,0.719,0.453,1.496,0.453,2.309V6.88c0,0.943-0.168,1.797-0.501,2.537c-0.33,0.733-0.796,1.381-1.389,1.92
	s-1.3,0.979-2.099,1.305c-0.789,0.328-1.655,0.56-2.578,0.691l-0.024,0.02l0.004,0.031l7.176,9.287L123.71,22.693z M114.836,12.111
	c0.941,0,1.827-0.118,2.631-0.354c0.8-0.234,1.501-0.578,2.084-1.023c0.574-0.434,1.035-0.979,1.371-1.618
	c0.333-0.636,0.502-1.369,0.502-2.187V6.861c0-1.524-0.57-2.745-1.695-3.627c-1.128-0.883-2.741-1.33-4.796-1.33h-7.722v10.207
	H114.836z M159.467,12.369c0.111,0,0.201-0.093,0.201-0.201v-1.115c0-0.111-0.09-0.201-0.201-0.201h-12.75V1.904h11.102
	c0.112,0,0.201-0.09,0.201-0.2V0.588c0-0.109-0.089-0.201-0.201-0.201h-12.581c-0.111,0-0.2,0.092-0.2,0.201v22.207
	c0,0.108,0.089,0.201,0.2,0.201h15.847c0.11,0,0.201-0.093,0.201-0.201v-1.117c0-0.109-0.091-0.199-0.201-0.199h-14.367V12.37
	L159.467,12.369L159.467,12.369z M208.869,0.387h9.114c1.293,0,2.448,0.18,3.435,0.535c0.996,0.354,1.813,0.85,2.434,1.473
	c0.963,0.967,1.451,2.164,1.451,3.558v0.063c0,0.773-0.113,1.459-0.339,2.041c-0.223,0.578-0.521,1.09-0.885,1.521
	c-0.375,0.436-0.793,0.799-1.242,1.086c-0.448,0.28-0.908,0.524-1.368,0.727c0.651,0.166,1.303,0.4,1.935,0.693
	c0.628,0.293,1.177,0.66,1.629,1.098c0.461,0.439,0.834,0.959,1.11,1.545c0.279,0.59,0.422,1.277,0.422,2.049v0.064
	c0,0.938-0.196,1.803-0.584,2.561c-0.385,0.761-0.937,1.412-1.643,1.937c-0.705,0.522-1.562,0.934-2.549,1.223
	c-0.975,0.289-2.09,0.438-3.318,0.438h-9.602c-0.109,0-0.199-0.092-0.199-0.201V0.588C208.67,0.479,208.76,0.387,208.869,0.387z
	 M210.347,1.904l0.001,8.947h7.463c0.834,0,1.615-0.104,2.324-0.307c0.713-0.209,1.33-0.512,1.841-0.896
	c0.516-0.391,0.924-0.883,1.212-1.467c0.289-0.588,0.438-1.266,0.438-2.014V6.102c0-1.25-0.491-2.272-1.456-3.043
	c-0.961-0.766-2.374-1.153-4.197-1.153h-7.625V1.904z M210.347,12.369l0.001,9.108h8.205c1.927,0,3.481-0.42,4.617-1.25
	c1.138-0.824,1.713-1.961,1.713-3.385v-0.066c0-1.397-0.593-2.495-1.761-3.26c-1.169-0.762-2.892-1.147-5.122-1.147H210.347z
	 M268.563,22.996L268.563,22.996L268.563,22.996h-1.398c-0.078,0-0.15-0.047-0.184-0.117l-2.822-6.213h-13.341l-2.818,6.213
	c-0.034,0.07-0.104,0.117-0.185,0.117h-1.302h-0.001l0,0l0,0c-0.075,0-0.248-0.103-0.183-0.285l0.011-0.021l10.336-22.348
	c0.033-0.072,0.104-0.117,0.183-0.117h1.357c0.08,0,0.149,0.045,0.184,0.117l10.334,22.348l0.012,0.021
	C268.811,22.895,268.639,22.996,268.563,22.996z M263.426,15.1l-5.922-13.035L251.549,15.1l0.003,0.031l0.028,0.016h11.814
	l0.028-0.016L263.426,15.1z M307.354,22.996h1.049c0.11,0,0.201-0.093,0.201-0.201V0.588c0-0.109-0.091-0.201-0.201-0.201h-1.212
	c-0.109,0-0.2,0.092-0.2,0.201v19.449l-0.028-0.015l-15.513-19.56l-0.071-0.076h-1.373c-0.11,0-0.201,0.092-0.201,0.201v22.207
	c0,0.108,0.091,0.201,0.201,0.201h1.214c0.111,0,0.201-0.093,0.201-0.201V2.926l0.029,0.014l15.837,19.979L307.354,22.996z
	 M350.002,22.668l-10.035-12.303l9.543-9.636c0.06-0.059,0.074-0.145,0.044-0.219c-0.031-0.076-0.104-0.125-0.185-0.125h-1.812
	l-0.058,0.062l-14.317,14.768l-0.05,0.021l-0.017-0.002l0.036-14.646c0-0.109-0.091-0.201-0.2-0.201h-1.278
	c-0.11,0-0.2,0.092-0.2,0.201v22.207c0,0.108,0.09,0.201,0.2,0.201h1.278c0.109,0,0.2-0.093,0.2-0.201v-5.508l0.029-0.068
	l5.562-5.629l0.025-0.012l0.029,0.018l9.217,11.326l0.062,0.074h1.77c0.076,0,0.273-0.09,0.162-0.316L350.002,22.668z M72.304,0.803
	c-6.002,0-10.886,4.885-10.886,10.889S66.301,22.58,72.304,22.58c6.004,0,10.889-4.886,10.889-10.89S78.308,0.803,72.304,0.803z
	 M97.528,74.338h1.281V64.17h3.812v-1.185h-8.903v1.185h3.811V74.338z M137.468,74.338h1.281v-4.41h3.211h0.033l3.292,4.41h1.572
	l-3.486-4.637c0.442-0.076,0.854-0.203,1.231-0.384c0.378-0.178,0.706-0.403,0.981-0.68c0.274-0.275,0.489-0.6,0.64-0.973
	c0.151-0.373,0.228-0.799,0.228-1.273v-0.033c0-0.452-0.076-0.868-0.228-1.248c-0.15-0.379-0.368-0.709-0.647-0.989
	c-0.357-0.355-0.809-0.636-1.354-0.834c-0.546-0.199-1.17-0.302-1.873-0.302h-4.881V74.338L137.468,74.338z M138.749,68.775V64.17
	h3.512c0.921,0,1.637,0.197,2.146,0.592c0.509,0.396,0.764,0.943,0.764,1.646v0.032c0,0.367-0.073,0.693-0.22,0.98
	c-0.147,0.287-0.351,0.529-0.609,0.729c-0.26,0.199-0.569,0.354-0.927,0.461c-0.358,0.109-0.748,0.162-1.17,0.162L138.749,68.775
	L138.749,68.775z M188.103,74.201c0.578-0.211,1.075-0.527,1.491-0.949s0.738-0.945,0.965-1.574
	c0.229-0.625,0.341-1.354,0.341-2.188v-6.505h-1.28v6.601c0,1.244-0.309,2.18-0.925,2.807c-0.615,0.627-1.448,0.939-2.496,0.939
	c-1.093,0-1.944-0.328-2.555-0.988s-0.917-1.604-0.917-2.838v-6.521h-1.281v6.601c0,0.801,0.113,1.51,0.341,2.125
	c0.227,0.617,0.548,1.133,0.965,1.549c0.416,0.416,0.914,0.73,1.492,0.941c0.577,0.209,1.219,0.313,1.921,0.313
	C186.878,74.516,187.523,74.41,188.103,74.201z M231.829,74.273c0.476-0.151,0.882-0.366,1.22-0.647
	c0.337-0.281,0.603-0.619,0.795-1.015c0.191-0.395,0.288-0.836,0.288-1.321v-0.031c0-0.865-0.3-1.547-0.9-2.043
	c-0.6-0.498-1.531-0.887-2.797-1.168c-0.627-0.131-1.141-0.269-1.541-0.414c-0.398-0.146-0.713-0.309-0.939-0.486
	c-0.228-0.178-0.385-0.373-0.471-0.584c-0.087-0.211-0.13-0.451-0.13-0.721v-0.033c0-0.52,0.216-0.953,0.648-1.305
	c0.432-0.353,1.021-0.527,1.768-0.527c0.584,0,1.145,0.099,1.68,0.291c0.534,0.195,1.066,0.508,1.597,0.941l0.746-0.99
	c-0.584-0.465-1.188-0.812-1.809-1.045c-0.622-0.232-1.349-0.35-2.182-0.35c-0.54,0-1.038,0.077-1.491,0.235
	c-0.454,0.156-0.85,0.373-1.185,0.648c-0.335,0.274-0.596,0.602-0.778,0.979s-0.274,0.789-0.274,1.232v0.033
	c0,0.465,0.075,0.869,0.228,1.215c0.151,0.348,0.385,0.647,0.699,0.908c0.312,0.26,0.712,0.481,1.193,0.666
	c0.482,0.184,1.05,0.346,1.699,0.485c0.596,0.129,1.086,0.267,1.471,0.404c0.386,0.141,0.687,0.299,0.902,0.471
	c0.217,0.174,0.368,0.365,0.455,0.576s0.13,0.445,0.13,0.705v0.033c0,0.562-0.229,1.022-0.688,1.387
	c-0.459,0.361-1.073,0.543-1.841,0.543c-0.789,0-1.486-0.133-2.092-0.397s-1.206-0.666-1.801-1.207l-0.794,0.938
	c0.681,0.617,1.396,1.074,2.148,1.371c0.751,0.297,1.58,0.445,2.488,0.445C230.834,74.5,231.354,74.424,231.829,74.273z
	 M272.174,74.338h1.281V64.17h3.811v-1.185h-8.901v1.185h3.811L272.174,74.338L272.174,74.338z M370.983,42.604H0v1h370.982V42.604z
	"/>
</svg>
